<?xml version="1.0" encoding="UTF-8" standalone="no"?>
<!-- Created with Inkscape (http://www.inkscape.org/) -->

<svg
   width="762.07153mm"
   height="269.30789mm"
   viewBox="0 0 762.07153 269.30789"
   version="1.1"
   id="svg1"
   xml:space="preserve"
   inkscape:version="1.4.2 (ebf0e940, 2025-05-08)"
   sodipodi:docname="Figure_S5.svg"
   inkscape:export-filename="Figure_S5.pdf"
   inkscape:export-xdpi="96"
   inkscape:export-ydpi="96"
   xmlns:inkscape="http://www.inkscape.org/namespaces/inkscape"
   xmlns:sodipodi="http://sodipodi.sourceforge.net/DTD/sodipodi-0.dtd"
   xmlns="http://www.w3.org/2000/svg"
   xmlns:svg="http://www.w3.org/2000/svg"><sodipodi:namedview
     id="namedview1"
     pagecolor="#ffffff"
     bordercolor="#000000"
     borderopacity="0.25"
     inkscape:showpageshadow="2"
     inkscape:pageopacity="0.0"
     inkscape:pagecheckerboard="0"
     inkscape:deskcolor="#d1d1d1"
     inkscape:document-units="mm"
     inkscape:zoom="0.26573684"
     inkscape:cx="1635.0763"
     inkscape:cy="901.26758"
     inkscape:window-width="2560"
     inkscape:window-height="1412"
     inkscape:window-x="2560"
     inkscape:window-y="28"
     inkscape:window-maximized="0"
     inkscape:current-layer="layer1" /><defs
     id="defs1"><style
       type="text/css"
       id="style1"><![CDATA[
    .svglite line, .svglite polyline, .svglite polygon, .svglite path, .svglite rect, .svglite circle {
      fill: none;
      stroke: #000000;
      stroke-linecap: round;
      stroke-linejoin: round;
      stroke-miterlimit: 10.00;
    }
    .svglite text {
      white-space: pre;
    }
    .svglite g.glyphgroup path {
      fill: inherit;
      stroke: none;
    }
  ]]></style><clipPath
       id="cpMC4wMHwyMTYwLjAwfDAuMDB8NzIwLjAw"><rect
         x="0"
         y="0"
         width="2160"
         height="720"
         id="rect2" /></clipPath><clipPath
       id="cpMC4wMHw3MjAuMDB8MC4wMHw3MjAuMDA="><rect
         x="0"
         y="0"
         width="720"
         height="720"
         id="rect3" /></clipPath><clipPath
       id="cpNzEuMzl8NzEwLjA0fDkuOTZ8NjU2Ljc1"><rect
         x="71.389999"
         y="9.96"
         width="638.65002"
         height="646.78003"
         id="rect5" /></clipPath><clipPath
       id="cpNzIwLjAwfDE0NDAuMDB8MC4wMHw3MjAuMDA="><rect
         x="720"
         y="0"
         width="720"
         height="720"
         id="rect39" /></clipPath><clipPath
       id="cpNzkxLjM5fDE0MzAuMDR8OS45Nnw2NTYuNzU="><rect
         x="791.39001"
         y="9.96"
         width="638.65002"
         height="646.78003"
         id="rect41" /></clipPath><clipPath
       id="cpMTQ0MC4wMHwyMTYwLjAwfDAuMDB8NzIwLjAw"><rect
         x="1440"
         y="0"
         width="720"
         height="720"
         id="rect73" /></clipPath><clipPath
       id="cpMTUxMS4zOXwyMTUwLjA0fDkuOTZ8NjU2Ljc1"><rect
         x="1511.39"
         y="9.96"
         width="638.65002"
         height="646.78003"
         id="rect75" /></clipPath><rect
       x="-21.139263"
       y="-100.99871"
       width="119.78916"
       height="100.99871"
       id="rect20-1-1" /><rect
       x="-21.139263"
       y="-100.99871"
       width="119.78916"
       height="100.99871"
       id="rect20-6-8-0" /><rect
       x="-21.139263"
       y="-100.99871"
       width="119.78916"
       height="100.99871"
       id="rect20-2-5-4" /></defs><g
     inkscape:label="Layer 1"
     inkscape:groupmode="layer"
     id="layer1"
     transform="translate(272.59238,-6.1233684)"><g
       class="svglite"
       id="g108"
       transform="matrix(0.35277778,0,0,0.35277778,-272.52084,21.431249)"><defs
         id="defs1-8"><style
           type="text/css"
           id="style2"><![CDATA[
    .svglite line, .svglite polyline, .svglite polygon, .svglite path, .svglite rect, .svglite circle {
      fill: none;
      stroke: #000000;
      stroke-linecap: round;
      stroke-linejoin: round;
      stroke-miterlimit: 10.00;
    }
    .svglite text {
      white-space: pre;
    }
    .svglite g.glyphgroup path {
      fill: inherit;
      stroke: none;
    }
  ]]></style></defs><rect
         width="100%"
         height="100%"
         style="fill:#ffffff;stroke:none"
         id="rect1"
         x="0"
         y="0" /><defs
         id="defs2"><clipPath
           id="clipPath4"><rect
             x="0"
             y="0"
             width="2160"
             height="720"
             id="rect4" /></clipPath></defs><g
         clip-path="url(#cpMC4wMHwyMTYwLjAwfDAuMDB8NzIwLjAw)"
         id="g2" /><defs
         id="defs3"><clipPath
           id="clipPath6"><rect
             x="0"
             y="0"
             width="720"
             height="720"
             id="rect6" /></clipPath></defs><g
         clip-path="url(#cpMC4wMHw3MjAuMDB8MC4wMHw3MjAuMDA=)"
         id="g4"><rect
           x="-6.4e-14"
           y="0"
           width="720"
           height="720"
           style="fill:#ffffff;stroke:#ffffff;stroke-width:1.94"
           id="rect7" /></g><g
         clip-path="url(#cpMC4wMHwyMTYwLjAwfDAuMDB8NzIwLjAw)"
         id="g5" /><defs
         id="defs5"><clipPath
           id="clipPath8"><rect
             x="71.389999"
             y="9.96"
             width="638.65002"
             height="646.78003"
             id="rect8" /></clipPath></defs><g
         clip-path="url(#cpNzEuMzl8NzEwLjA0fDkuOTZ8NjU2Ljc1)"
         id="g9"><rect
           x="71.389999"
           y="9.96"
           width="638.65002"
           height="646.78003"
           style="fill:#ffffff;stroke:none;stroke-width:1.94"
           id="rect9" /><polyline
           points="100.42,39.36 112.03,177.44 123.64,197.61 135.25,259.66 146.87,340.34 158.48,394.64 170.09,397.74 181.70,442.73 193.31,447.38 204.92,486.17 216.54,500.13 228.15,503.23 239.76,518.75 251.37,518.75 262.98,532.71 274.60,540.47 286.21,560.64 297.82,566.84 309.43,571.50 321.04,577.70 332.65,580.80 344.27,569.94 355.88,577.70 367.49,590.11 379.10,588.56 390.71,583.91 402.33,585.46 413.94,594.77 425.55,588.56 437.16,599.42 448.77,604.08 460.38,599.42 472.00,593.22 483.61,597.87 495.22,594.77 506.83,590.11 518.44,591.66 530.05,591.66 541.67,596.32 553.28,590.11 564.89,590.11 576.50,590.11 588.11,590.11 599.73,596.32 611.34,600.97 622.95,600.97 634.56,590.11 646.17,590.11 657.78,591.66 669.40,590.11 681.01,593.22 "
           style="stroke:#4477aa;stroke-width:4.27;stroke-linecap:butt"
           id="polyline6" /><polyline
           points="100.42,611.83 112.03,616.49 123.64,616.49 135.25,618.04 146.87,622.69 158.48,619.59 170.09,618.04 181.70,621.14 193.31,619.59 204.92,621.14 216.54,622.69 228.15,624.24 239.76,624.24 251.37,622.69 262.98,624.24 274.60,627.35 286.21,627.35 297.82,625.80 309.43,625.80 321.04,627.35 332.65,621.14 344.27,619.59 355.88,613.38 367.49,618.04 379.10,616.49 390.71,610.28 402.33,611.83 413.94,613.38 425.55,614.94 437.16,613.38 448.77,611.83 460.38,613.38 472.00,611.83 483.61,613.38 495.22,611.83 506.83,614.94 518.44,614.94 530.05,616.49 541.67,613.38 553.28,610.28 564.89,616.49 576.50,614.94 588.11,618.04 599.73,614.94 611.34,610.28 622.95,614.94 634.56,608.73 646.17,610.28 657.78,610.28 669.40,611.83 681.01,607.18 "
           style="stroke:#228833;stroke-width:4.27;stroke-linecap:butt"
           id="polyline7" /><polyline
           points="100.42,39.36 112.03,141.76 123.64,225.53 135.25,270.52 146.87,343.44 158.48,396.19 170.09,410.15 181.70,447.38 193.31,466.00 204.92,495.48 216.54,500.13 228.15,512.54 239.76,507.89 251.37,524.95 262.98,540.47 274.60,545.12 286.21,559.09 297.82,562.19 309.43,569.94 321.04,573.05 332.65,577.70 344.27,576.15 355.88,585.46 367.49,588.56 379.10,580.80 390.71,583.91 402.33,593.22 413.94,594.77 425.55,583.91 437.16,599.42 448.77,593.22 460.38,594.77 472.00,591.66 483.61,591.66 495.22,591.66 506.83,587.01 518.44,583.91 530.05,590.11 541.67,588.56 553.28,588.56 564.89,590.11 576.50,591.66 588.11,585.46 599.73,594.77 611.34,599.42 622.95,596.32 634.56,590.11 646.17,588.56 657.78,590.11 669.40,593.22 681.01,597.87 "
           style="stroke:#66ccee;stroke-width:4.27;stroke-linecap:butt"
           id="polyline8" /><polyline
           points="100.42,611.83 112.03,618.04 123.64,613.38 135.25,618.04 146.87,614.94 158.48,619.59 170.09,619.59 181.70,619.59 193.31,621.14 204.92,622.69 216.54,621.14 228.15,625.80 239.76,622.69 251.37,622.69 262.98,624.24 274.60,627.35 286.21,625.80 297.82,627.35 309.43,624.24 321.04,622.69 332.65,618.04 344.27,614.94 355.88,613.38 367.49,610.28 379.10,611.83 390.71,608.73 402.33,611.83 413.94,613.38 425.55,607.18 437.16,607.18 448.77,604.08 460.38,610.28 472.00,608.73 483.61,607.18 495.22,608.73 506.83,613.38 518.44,614.94 530.05,613.38 541.67,608.73 553.28,613.38 564.89,613.38 576.50,614.94 588.11,619.59 599.73,613.38 611.34,613.38 622.95,613.38 634.56,614.94 646.17,611.83 657.78,607.18 669.40,610.28 681.01,608.73 "
           style="stroke:#ccbb44;stroke-width:4.27;stroke-linecap:butt"
           id="polyline9" /><line
           x1="71.389999"
           y1="613.38"
           x2="710.03998"
           y2="613.38"
           style="stroke-width:1.07;stroke-linecap:butt;stroke-dasharray:5.69, 5.69"
           id="line9" /></g><g
         clip-path="url(#cpMC4wMHwyMTYwLjAwfDAuMDB8NzIwLjAw)"
         id="g39"><polyline
           points="71.39,656.75 71.39,9.96 "
           style="stroke-width:1.94;stroke-linecap:butt"
           id="polyline10" /><text
           x="62.419998"
           y="658.60999"
           text-anchor="end"
           style="font-size:18px;font-family:Arial;fill:#4d4d4d"
           textLength="25.030001"
           lengthAdjust="spacingAndGlyphs"
           id="text10">0.0</text><text
           x="62.419998"
           y="503.47"
           text-anchor="end"
           style="font-size:18px;font-family:Arial;fill:#4d4d4d"
           textLength="25.030001"
           lengthAdjust="spacingAndGlyphs"
           id="text11">0.2</text><text
           x="62.419998"
           y="348.32999"
           text-anchor="end"
           style="font-size:18px;font-family:Arial;fill:#4d4d4d"
           textLength="25.030001"
           lengthAdjust="spacingAndGlyphs"
           id="text12">0.4</text><text
           x="62.419998"
           y="193.19"
           text-anchor="end"
           style="font-size:18px;font-family:Arial;fill:#4d4d4d"
           textLength="25.030001"
           lengthAdjust="spacingAndGlyphs"
           id="text13">0.6</text><text
           x="62.419998"
           y="38.049999"
           text-anchor="end"
           style="font-size:18px;font-family:Arial;fill:#4d4d4d"
           textLength="25.030001"
           lengthAdjust="spacingAndGlyphs"
           id="text14">0.8</text><polyline
           points="66.41,652.17 71.39,652.17 "
           style="stroke:#333333;stroke-width:1.94;stroke-linecap:butt"
           id="polyline14" /><polyline
           points="66.41,497.03 71.39,497.03 "
           style="stroke:#333333;stroke-width:1.94;stroke-linecap:butt"
           id="polyline15" /><polyline
           points="66.41,341.89 71.39,341.89 "
           style="stroke:#333333;stroke-width:1.94;stroke-linecap:butt"
           id="polyline16" /><polyline
           points="66.41,186.75 71.39,186.75 "
           style="stroke:#333333;stroke-width:1.94;stroke-linecap:butt"
           id="polyline17" /><polyline
           points="66.41,31.60 71.39,31.60 "
           style="stroke:#333333;stroke-width:1.94;stroke-linecap:butt"
           id="polyline18" /><polyline
           points="71.39,656.75 710.04,656.75 "
           style="stroke-width:1.94;stroke-linecap:butt"
           id="polyline19" /><polyline
           points="100.42,661.73 100.42,656.75 "
           style="stroke:#333333;stroke-width:1.94;stroke-linecap:butt"
           id="polyline20" /><polyline
           points="216.54,661.73 216.54,656.75 "
           style="stroke:#333333;stroke-width:1.94;stroke-linecap:butt"
           id="polyline21" /><polyline
           points="332.65,661.73 332.65,656.75 "
           style="stroke:#333333;stroke-width:1.94;stroke-linecap:butt"
           id="polyline22" /><polyline
           points="448.77,661.73 448.77,656.75 "
           style="stroke:#333333;stroke-width:1.94;stroke-linecap:butt"
           id="polyline23" /><polyline
           points="564.89,661.73 564.89,656.75 "
           style="stroke:#333333;stroke-width:1.94;stroke-linecap:butt"
           id="polyline24" /><polyline
           points="681.01,661.73 681.01,656.75 "
           style="stroke:#333333;stroke-width:1.94;stroke-linecap:butt"
           id="polyline25" /><text
           x="100.42"
           y="678.59998"
           text-anchor="middle"
           style="font-size:18px;font-family:Arial;fill:#4d4d4d"
           textLength="10.02"
           lengthAdjust="spacingAndGlyphs"
           id="text25">0</text><text
           x="216.53999"
           y="678.59998"
           text-anchor="middle"
           style="font-size:18px;font-family:Arial;fill:#4d4d4d"
           textLength="20.030001"
           lengthAdjust="spacingAndGlyphs"
           id="text26">10</text><text
           x="332.64999"
           y="678.59998"
           text-anchor="middle"
           style="font-size:18px;font-family:Arial;fill:#4d4d4d"
           textLength="20.030001"
           lengthAdjust="spacingAndGlyphs"
           id="text27">20</text><text
           x="448.76999"
           y="678.59998"
           text-anchor="middle"
           style="font-size:18px;font-family:Arial;fill:#4d4d4d"
           textLength="20.030001"
           lengthAdjust="spacingAndGlyphs"
           id="text28">30</text><text
           x="564.89001"
           y="678.59998"
           text-anchor="middle"
           style="font-size:18px;font-family:Arial;fill:#4d4d4d"
           textLength="20.030001"
           lengthAdjust="spacingAndGlyphs"
           id="text29">40</text><text
           x="681.01001"
           y="678.59998"
           text-anchor="middle"
           style="font-size:18px;font-family:Arial;fill:#4d4d4d"
           textLength="20.030001"
           lengthAdjust="spacingAndGlyphs"
           id="text30">50</text><text
           x="390.70999"
           y="704.76001"
           text-anchor="middle"
           style="font-size:24px;font-family:Arial"
           textLength="254.78"
           lengthAdjust="spacingAndGlyphs"
           id="text31">Number of eigenvectors</text><text
           transform="rotate(-90,180.245,153.105)"
           text-anchor="middle"
           style="font-size:24px;font-family:Arial"
           textLength="284.10999"
           lengthAdjust="spacingAndGlyphs"
           id="text32">Fraction of significant tests</text><rect
           x="450.76001"
           y="35.759998"
           width="199.23"
           height="142.45"
           style="fill:#ffffff;stroke:none;stroke-width:1.94"
           id="rect32" /><text
           x="460.72"
           y="65.559998"
           style="font-size:24px;font-family:Arial"
           textLength="158.73"
           lengthAdjust="spacingAndGlyphs"
           id="text33">method_matrix</text><rect
           x="460.72"
           y="78.190002"
           width="17.280001"
           height="22.51"
           style="fill:#ffffff;stroke:none;stroke-width:1.94"
           id="rect33" /><line
           x1="462.45001"
           y1="89.449997"
           x2="476.26999"
           y2="89.449997"
           style="stroke:#4477aa;stroke-width:4.27;stroke-linecap:butt"
           id="line33" /><rect
           x="460.72"
           y="100.71"
           width="17.280001"
           height="22.51"
           style="fill:#ffffff;stroke:none;stroke-width:1.94"
           id="rect34" /><line
           x1="462.45001"
           y1="111.96"
           x2="476.26999"
           y2="111.96"
           style="stroke:#66ccee;stroke-width:4.27;stroke-linecap:butt"
           id="line34" /><rect
           x="460.72"
           y="123.22"
           width="17.280001"
           height="22.51"
           style="fill:#ffffff;stroke:none;stroke-width:1.94"
           id="rect35" /><line
           x1="462.45001"
           y1="134.47"
           x2="476.26999"
           y2="134.47"
           style="stroke:#228833;stroke-width:4.27;stroke-linecap:butt"
           id="line35" /><rect
           x="460.72"
           y="145.73"
           width="17.280001"
           height="22.51"
           style="fill:#ffffff;stroke:none;stroke-width:1.94"
           id="rect36" /><line
           x1="462.45001"
           y1="156.99001"
           x2="476.26999"
           y2="156.99001"
           style="stroke:#ccbb44;stroke-width:4.27;stroke-linecap:butt"
           id="line36" /><text
           x="487.95999"
           y="98.040001"
           style="font-size:24px;font-family:Arial"
           textLength="110.73"
           lengthAdjust="spacingAndGlyphs"
           id="text36">OLS_VCV</text><text
           x="487.95999"
           y="120.55"
           style="font-size:24px;font-family:Arial"
           textLength="136.08"
           lengthAdjust="spacingAndGlyphs"
           id="text37">OLS_dcVCV</text><text
           x="487.95999"
           y="143.06"
           style="font-size:24px;font-family:Arial"
           textLength="126.75"
           lengthAdjust="spacingAndGlyphs"
           id="text38">PGLS_VCV</text><text
           x="487.95999"
           y="165.58"
           style="font-size:24px;font-family:Arial"
           textLength="152.09"
           lengthAdjust="spacingAndGlyphs"
           id="text39">PGLS_dcVCV</text></g><defs
         id="defs39"><clipPath
           id="clipPath10"><rect
             x="720"
             y="0"
             width="720"
             height="720"
             id="rect10" /></clipPath></defs><g
         clip-path="url(#cpNzIwLjAwfDE0NDAuMDB8MC4wMHw3MjAuMDA=)"
         id="g40"><rect
           x="720"
           y="0"
           width="720"
           height="720"
           style="fill:#ffffff;stroke:#ffffff;stroke-width:1.94"
           id="rect40" /></g><g
         clip-path="url(#cpMC4wMHwyMTYwLjAwfDAuMDB8NzIwLjAw)"
         id="g41" /><defs
         id="defs41"><clipPath
           id="clipPath11"><rect
             x="791.39001"
             y="9.96"
             width="638.65002"
             height="646.78003"
             id="rect11" /></clipPath></defs><g
         clip-path="url(#cpNzkxLjM5fDE0MzAuMDR8OS45Nnw2NTYuNzU=)"
         id="g45"><rect
           x="791.39001"
           y="9.96"
           width="638.65002"
           height="646.78003"
           style="fill:#ffffff;stroke:none;stroke-width:1.94"
           id="rect42" /><polyline
           points="820.42,39.36 832.03,152.54 843.64,232.60 855.25,282.29 866.87,331.97 878.48,348.54 890.09,370.62 901.70,359.58 913.31,398.23 924.92,389.94 936.54,409.27 948.15,425.83 959.76,409.27 971.37,406.51 982.98,417.55 994.60,447.92 1006.21,420.31 1017.82,409.27 1029.43,445.15 1041.04,456.20 1052.65,475.52 1064.27,475.52 1075.88,486.56 1087.49,483.80 1099.10,489.32 1110.71,497.60 1122.33,505.89 1133.94,511.41 1145.55,500.36 1157.16,519.69 1168.77,511.41 1180.38,511.41 1192.00,497.60 1203.61,505.89 1215.22,508.65 1226.83,503.12 1238.44,489.32 1250.05,497.60 1261.67,511.41 1273.28,519.69 1284.89,519.69 1296.50,486.56 1308.11,486.56 1319.73,494.84 1331.34,514.17 1342.95,514.17 1354.56,511.41 1366.17,505.89 1377.78,519.69 1389.40,541.77 1401.01,530.73 "
           style="stroke:#4477aa;stroke-width:4.27;stroke-linecap:butt"
           id="polyline42" /><polyline
           points="820.42,627.35 832.03,624.59 843.64,619.07 855.25,624.59 866.87,608.02 878.48,613.54 890.09,616.31 901.70,619.07 913.31,619.07 924.92,616.31 936.54,621.83 948.15,616.31 959.76,613.54 971.37,619.07 982.98,613.54 994.60,605.26 1006.21,605.26 1017.82,608.02 1029.43,608.02 1041.04,613.54 1052.65,613.54 1064.27,613.54 1075.88,613.54 1087.49,605.26 1099.10,613.54 1110.71,616.31 1122.33,619.07 1133.94,616.31 1145.55,610.78 1157.16,619.07 1168.77,613.54 1180.38,616.31 1192.00,616.31 1203.61,619.07 1215.22,619.07 1226.83,616.31 1238.44,613.54 1250.05,610.78 1261.67,610.78 1273.28,610.78 1284.89,605.26 1296.50,588.70 1308.11,594.22 1319.73,602.50 1331.34,596.98 1342.95,594.22 1354.56,605.26 1366.17,605.26 1377.78,610.78 1389.40,610.78 1401.01,610.78 "
           style="stroke:#228833;stroke-width:4.27;stroke-linecap:butt"
           id="polyline43" /><polyline
           points="820.42,39.36 832.03,202.23 843.64,249.16 855.25,287.81 866.87,309.89 878.48,362.34 890.09,365.10 901.70,403.75 913.31,412.03 924.92,414.79 936.54,431.35 948.15,414.79 959.76,409.27 971.37,420.31 982.98,458.96 994.60,428.59 1006.21,423.07 1017.82,450.68 1029.43,461.72 1041.04,472.76 1052.65,486.56 1064.27,483.80 1075.88,505.89 1087.49,503.12 1099.10,481.04 1110.71,492.08 1122.33,511.41 1133.94,505.89 1145.55,514.17 1157.16,508.65 1168.77,511.41 1180.38,497.60 1192.00,500.36 1203.61,505.89 1215.22,511.41 1226.83,500.36 1238.44,514.17 1250.05,514.17 1261.67,514.17 1273.28,508.65 1284.89,497.60 1296.50,486.56 1308.11,486.56 1319.73,503.12 1331.34,516.93 1342.95,514.17 1354.56,508.65 1366.17,536.25 1377.78,544.53 1389.40,536.25 1401.01,536.25 "
           style="stroke:#66ccee;stroke-width:4.27;stroke-linecap:butt"
           id="polyline44" /><polyline
           points="820.42,627.35 832.03,624.59 843.64,621.83 855.25,619.07 866.87,613.54 878.48,619.07 890.09,624.59 901.70,621.83 913.31,624.59 924.92,624.59 936.54,627.35 948.15,621.83 959.76,624.59 971.37,624.59 982.98,621.83 994.60,616.31 1006.21,619.07 1017.82,619.07 1029.43,616.31 1041.04,619.07 1052.65,624.59 1064.27,616.31 1075.88,613.54 1087.49,613.54 1099.10,616.31 1110.71,619.07 1122.33,619.07 1133.94,616.31 1145.55,619.07 1157.16,621.83 1168.77,621.83 1180.38,619.07 1192.00,621.83 1203.61,619.07 1215.22,616.31 1226.83,613.54 1238.44,602.50 1250.05,605.26 1261.67,605.26 1273.28,602.50 1284.89,591.46 1296.50,594.22 1308.11,602.50 1319.73,605.26 1331.34,599.74 1342.95,602.50 1354.56,596.98 1366.17,602.50 1377.78,605.26 1389.40,613.54 1401.01,608.02 "
           style="stroke:#ccbb44;stroke-width:4.27;stroke-linecap:butt"
           id="polyline45" /><line
           x1="791.39001"
           y1="610.78003"
           x2="1430.04"
           y2="610.78003"
           style="stroke-width:1.07;stroke-linecap:butt;stroke-dasharray:5.69, 5.69"
           id="line45" /></g><g
         clip-path="url(#cpMC4wMHwyMTYwLjAwfDAuMDB8NzIwLjAw)"
         id="g73"><polyline
           points="791.39,656.75 791.39,9.96 "
           style="stroke-width:1.94;stroke-linecap:butt"
           id="polyline46" /><text
           x="782.41998"
           y="548.21997"
           text-anchor="end"
           style="font-size:18px;font-family:Arial;fill:#4d4d4d"
           textLength="25.030001"
           lengthAdjust="spacingAndGlyphs"
           id="text46">0.1</text><text
           x="782.41998"
           y="410.19"
           text-anchor="end"
           style="font-size:18px;font-family:Arial;fill:#4d4d4d"
           textLength="25.030001"
           lengthAdjust="spacingAndGlyphs"
           id="text47">0.2</text><text
           x="782.41998"
           y="272.17001"
           text-anchor="end"
           style="font-size:18px;font-family:Arial;fill:#4d4d4d"
           textLength="25.030001"
           lengthAdjust="spacingAndGlyphs"
           id="text48">0.3</text><text
           x="782.41998"
           y="134.14"
           text-anchor="end"
           style="font-size:18px;font-family:Arial;fill:#4d4d4d"
           textLength="25.030001"
           lengthAdjust="spacingAndGlyphs"
           id="text49">0.4</text><polyline
           points="786.41,541.77 791.39,541.77 "
           style="stroke:#333333;stroke-width:1.94;stroke-linecap:butt"
           id="polyline49" /><polyline
           points="786.41,403.75 791.39,403.75 "
           style="stroke:#333333;stroke-width:1.94;stroke-linecap:butt"
           id="polyline50" /><polyline
           points="786.41,265.72 791.39,265.72 "
           style="stroke:#333333;stroke-width:1.94;stroke-linecap:butt"
           id="polyline51" /><polyline
           points="786.41,127.70 791.39,127.70 "
           style="stroke:#333333;stroke-width:1.94;stroke-linecap:butt"
           id="polyline52" /><polyline
           points="791.39,656.75 1430.04,656.75 "
           style="stroke-width:1.94;stroke-linecap:butt"
           id="polyline53" /><polyline
           points="820.42,661.73 820.42,656.75 "
           style="stroke:#333333;stroke-width:1.94;stroke-linecap:butt"
           id="polyline54" /><polyline
           points="936.54,661.73 936.54,656.75 "
           style="stroke:#333333;stroke-width:1.94;stroke-linecap:butt"
           id="polyline55" /><polyline
           points="1052.65,661.73 1052.65,656.75 "
           style="stroke:#333333;stroke-width:1.94;stroke-linecap:butt"
           id="polyline56" /><polyline
           points="1168.77,661.73 1168.77,656.75 "
           style="stroke:#333333;stroke-width:1.94;stroke-linecap:butt"
           id="polyline57" /><polyline
           points="1284.89,661.73 1284.89,656.75 "
           style="stroke:#333333;stroke-width:1.94;stroke-linecap:butt"
           id="polyline58" /><polyline
           points="1401.01,661.73 1401.01,656.75 "
           style="stroke:#333333;stroke-width:1.94;stroke-linecap:butt"
           id="polyline59" /><text
           x="820.41998"
           y="678.59998"
           text-anchor="middle"
           style="font-size:18px;font-family:Arial;fill:#4d4d4d"
           textLength="10.02"
           lengthAdjust="spacingAndGlyphs"
           id="text59">0</text><text
           x="936.53998"
           y="678.59998"
           text-anchor="middle"
           style="font-size:18px;font-family:Arial;fill:#4d4d4d"
           textLength="20.030001"
           lengthAdjust="spacingAndGlyphs"
           id="text60">10</text><text
           x="1052.65"
           y="678.59998"
           text-anchor="middle"
           style="font-size:18px;font-family:Arial;fill:#4d4d4d"
           textLength="20.030001"
           lengthAdjust="spacingAndGlyphs"
           id="text61">20</text><text
           x="1168.77"
           y="678.59998"
           text-anchor="middle"
           style="font-size:18px;font-family:Arial;fill:#4d4d4d"
           textLength="20.030001"
           lengthAdjust="spacingAndGlyphs"
           id="text62">30</text><text
           x="1284.89"
           y="678.59998"
           text-anchor="middle"
           style="font-size:18px;font-family:Arial;fill:#4d4d4d"
           textLength="20.030001"
           lengthAdjust="spacingAndGlyphs"
           id="text63">40</text><text
           x="1401.01"
           y="678.59998"
           text-anchor="middle"
           style="font-size:18px;font-family:Arial;fill:#4d4d4d"
           textLength="20.030001"
           lengthAdjust="spacingAndGlyphs"
           id="text64">50</text><text
           x="1110.71"
           y="704.76001"
           text-anchor="middle"
           style="font-size:24px;font-family:Arial"
           textLength="254.78"
           lengthAdjust="spacingAndGlyphs"
           id="text65">Number of eigenvectors</text><text
           transform="rotate(-90,540.245,-206.895)"
           text-anchor="middle"
           style="font-size:24px;font-family:Arial"
           textLength="284.10999"
           lengthAdjust="spacingAndGlyphs"
           id="text66">Fraction of significant tests</text><rect
           x="1170.76"
           y="35.759998"
           width="199.23"
           height="142.45"
           style="fill:#ffffff;stroke:none;stroke-width:1.94"
           id="rect66" /><text
           x="1180.72"
           y="65.559998"
           style="font-size:24px;font-family:Arial"
           textLength="158.73"
           lengthAdjust="spacingAndGlyphs"
           id="text67">method_matrix</text><rect
           x="1180.72"
           y="78.190002"
           width="17.280001"
           height="22.51"
           style="fill:#ffffff;stroke:none;stroke-width:1.94"
           id="rect67" /><line
           x1="1182.45"
           y1="89.449997"
           x2="1196.27"
           y2="89.449997"
           style="stroke:#4477aa;stroke-width:4.27;stroke-linecap:butt"
           id="line67" /><rect
           x="1180.72"
           y="100.71"
           width="17.280001"
           height="22.51"
           style="fill:#ffffff;stroke:none;stroke-width:1.94"
           id="rect68" /><line
           x1="1182.45"
           y1="111.96"
           x2="1196.27"
           y2="111.96"
           style="stroke:#66ccee;stroke-width:4.27;stroke-linecap:butt"
           id="line68" /><rect
           x="1180.72"
           y="123.22"
           width="17.280001"
           height="22.51"
           style="fill:#ffffff;stroke:none;stroke-width:1.94"
           id="rect69" /><line
           x1="1182.45"
           y1="134.47"
           x2="1196.27"
           y2="134.47"
           style="stroke:#228833;stroke-width:4.27;stroke-linecap:butt"
           id="line69" /><rect
           x="1180.72"
           y="145.73"
           width="17.280001"
           height="22.51"
           style="fill:#ffffff;stroke:none;stroke-width:1.94"
           id="rect70" /><line
           x1="1182.45"
           y1="156.99001"
           x2="1196.27"
           y2="156.99001"
           style="stroke:#ccbb44;stroke-width:4.27;stroke-linecap:butt"
           id="line70" /><text
           x="1207.96"
           y="98.040001"
           style="font-size:24px;font-family:Arial"
           textLength="110.73"
           lengthAdjust="spacingAndGlyphs"
           id="text70">OLS_VCV</text><text
           x="1207.96"
           y="120.55"
           style="font-size:24px;font-family:Arial"
           textLength="136.08"
           lengthAdjust="spacingAndGlyphs"
           id="text71">OLS_dcVCV</text><text
           x="1207.96"
           y="143.06"
           style="font-size:24px;font-family:Arial"
           textLength="126.75"
           lengthAdjust="spacingAndGlyphs"
           id="text72">PGLS_VCV</text><text
           x="1207.96"
           y="165.58"
           style="font-size:24px;font-family:Arial"
           textLength="152.09"
           lengthAdjust="spacingAndGlyphs"
           id="text73">PGLS_dcVCV</text></g><defs
         id="defs73"><clipPath
           id="clipPath12"><rect
             x="1440"
             y="0"
             width="720"
             height="720"
             id="rect12" /></clipPath></defs><g
         clip-path="url(#cpMTQ0MC4wMHwyMTYwLjAwfDAuMDB8NzIwLjAw)"
         id="g74"><rect
           x="1440"
           y="0"
           width="720"
           height="720"
           style="fill:#ffffff;stroke:#ffffff;stroke-width:1.94"
           id="rect74" /></g><g
         clip-path="url(#cpMC4wMHwyMTYwLjAwfDAuMDB8NzIwLjAw)"
         id="g75" /><defs
         id="defs75"><clipPath
           id="clipPath13"><rect
             x="1511.39"
             y="9.96"
             width="638.65002"
             height="646.78003"
             id="rect13" /></clipPath></defs><g
         clip-path="url(#cpMTUxMS4zOXwyMTUwLjA0fDkuOTZ8NjU2Ljc1)"
         id="g79"><rect
           x="1511.39"
           y="9.96"
           width="638.65002"
           height="646.78003"
           style="fill:#ffffff;stroke:none;stroke-width:1.94"
           id="rect76" /><polyline
           points="1540.42,39.36 1552.03,87.91 1563.64,195.80 1575.25,211.98 1586.87,263.23 1598.48,290.20 1610.09,292.90 1621.70,303.69 1633.31,368.42 1644.92,376.51 1656.54,379.21 1668.15,376.51 1679.76,400.78 1691.37,414.27 1702.98,457.42 1714.60,446.64 1726.21,468.21 1737.82,462.82 1749.43,457.42 1761.04,479.00 1772.65,497.88 1784.27,492.49 1795.88,508.67 1807.49,519.46 1819.10,530.25 1830.71,532.95 1842.33,535.64 1853.94,527.55 1865.55,543.73 1877.16,538.34 1888.77,559.92 1900.38,543.73 1912.00,530.25 1923.61,522.16 1935.22,530.25 1946.83,535.64 1958.44,535.64 1970.05,559.92 1981.67,527.55 1993.28,538.34 2004.89,549.13 2016.50,543.73 2028.11,546.43 2039.73,538.34 2051.34,549.13 2062.95,562.61 2074.56,557.22 2086.17,562.61 2097.78,557.22 2109.40,559.92 2121.01,538.34 "
           style="stroke:#4477aa;stroke-width:4.27;stroke-linecap:butt"
           id="polyline76" /><polyline
           points="1540.42,616.56 1552.03,613.86 1563.64,616.56 1575.25,613.86 1586.87,613.86 1598.48,619.26 1610.09,621.95 1621.70,613.86 1633.31,608.47 1644.92,616.56 1656.54,616.56 1668.15,613.86 1679.76,613.86 1691.37,613.86 1702.98,619.26 1714.60,624.65 1726.21,619.26 1737.82,621.95 1749.43,619.26 1761.04,624.65 1772.65,619.26 1784.27,624.65 1795.88,616.56 1807.49,616.56 1819.10,616.56 1830.71,605.77 1842.33,611.16 1853.94,608.47 1865.55,611.16 1877.16,611.16 1888.77,616.56 1900.38,611.16 1912.00,608.47 1923.61,608.47 1935.22,605.77 1946.83,605.77 1958.44,603.07 1970.05,611.16 1981.67,605.77 1993.28,600.38 2004.89,605.77 2016.50,605.77 2028.11,603.07 2039.73,597.68 2051.34,603.07 2062.95,611.16 2074.56,600.38 2086.17,600.38 2097.78,600.38 2109.40,597.68 2121.01,600.38 "
           style="stroke:#228833;stroke-width:4.27;stroke-linecap:butt"
           id="polyline77" /><polyline
           points="1540.42,39.36 1552.03,133.76 1563.64,211.98 1575.25,236.26 1586.87,292.90 1598.48,298.29 1610.09,274.02 1621.70,349.54 1633.31,360.33 1644.92,384.60 1656.54,387.30 1668.15,398.09 1679.76,414.27 1691.37,460.12 1702.98,457.42 1714.60,457.42 1726.21,457.42 1737.82,470.91 1749.43,492.49 1761.04,503.28 1772.65,500.58 1784.27,516.76 1795.88,524.85 1807.49,522.16 1819.10,538.34 1830.71,527.55 1842.33,524.85 1853.94,532.95 1865.55,530.25 1877.16,541.04 1888.77,541.04 1900.38,549.13 1912.00,541.04 1923.61,535.64 1935.22,535.64 1946.83,522.16 1958.44,551.83 1970.05,532.95 1981.67,538.34 1993.28,535.64 2004.89,546.43 2016.50,546.43 2028.11,554.52 2039.73,559.92 2051.34,573.40 2062.95,578.80 2074.56,562.61 2086.17,551.83 2097.78,562.61 2109.40,543.73 2121.01,541.04 "
           style="stroke:#66ccee;stroke-width:4.27;stroke-linecap:butt"
           id="polyline78" /><polyline
           points="1540.42,616.56 1552.03,613.86 1563.64,613.86 1575.25,608.47 1586.87,616.56 1598.48,621.95 1610.09,619.26 1621.70,611.16 1633.31,621.95 1644.92,619.26 1656.54,619.26 1668.15,619.26 1679.76,619.26 1691.37,621.95 1702.98,624.65 1714.60,621.95 1726.21,624.65 1737.82,616.56 1749.43,627.35 1761.04,621.95 1772.65,624.65 1784.27,619.26 1795.88,613.86 1807.49,611.16 1819.10,613.86 1830.71,616.56 1842.33,619.26 1853.94,613.86 1865.55,616.56 1877.16,608.47 1888.77,611.16 1900.38,613.86 1912.00,608.47 1923.61,613.86 1935.22,611.16 1946.83,611.16 1958.44,608.47 1970.05,608.47 1981.67,603.07 1993.28,608.47 2004.89,611.16 2016.50,608.47 2028.11,605.77 2039.73,605.77 2051.34,605.77 2062.95,603.07 2074.56,600.38 2086.17,600.38 2097.78,603.07 2109.40,603.07 2121.01,603.07 "
           style="stroke:#ccbb44;stroke-width:4.27;stroke-linecap:butt"
           id="polyline79" /><line
           x1="1511.39"
           y1="600.38"
           x2="2150.04"
           y2="600.38"
           style="stroke-width:1.07;stroke-linecap:butt;stroke-dasharray:5.69, 5.69"
           id="line79" /></g><g
         clip-path="url(#cpMC4wMHwyMTYwLjAwfDAuMDB8NzIwLjAw)"
         id="g107"><polyline
           points="1511.39,656.75 1511.39,9.96 "
           style="stroke-width:1.94;stroke-linecap:butt"
           id="polyline80" /><text
           x="1502.42"
           y="539.39001"
           text-anchor="end"
           style="font-size:18px;font-family:Arial;fill:#4d4d4d"
           textLength="25.030001"
           lengthAdjust="spacingAndGlyphs"
           id="text80">0.1</text><text
           x="1502.42"
           y="404.53"
           text-anchor="end"
           style="font-size:18px;font-family:Arial;fill:#4d4d4d"
           textLength="25.030001"
           lengthAdjust="spacingAndGlyphs"
           id="text81">0.2</text><text
           x="1502.42"
           y="269.67001"
           text-anchor="end"
           style="font-size:18px;font-family:Arial;fill:#4d4d4d"
           textLength="25.030001"
           lengthAdjust="spacingAndGlyphs"
           id="text82">0.3</text><text
           x="1502.42"
           y="134.81"
           text-anchor="end"
           style="font-size:18px;font-family:Arial;fill:#4d4d4d"
           textLength="25.030001"
           lengthAdjust="spacingAndGlyphs"
           id="text83">0.4</text><polyline
           points="1506.41,532.95 1511.39,532.95 "
           style="stroke:#333333;stroke-width:1.94;stroke-linecap:butt"
           id="polyline83" /><polyline
           points="1506.41,398.09 1511.39,398.09 "
           style="stroke:#333333;stroke-width:1.94;stroke-linecap:butt"
           id="polyline84" /><polyline
           points="1506.41,263.23 1511.39,263.23 "
           style="stroke:#333333;stroke-width:1.94;stroke-linecap:butt"
           id="polyline85" /><polyline
           points="1506.41,128.37 1511.39,128.37 "
           style="stroke:#333333;stroke-width:1.94;stroke-linecap:butt"
           id="polyline86" /><polyline
           points="1511.39,656.75 2150.04,656.75 "
           style="stroke-width:1.94;stroke-linecap:butt"
           id="polyline87" /><polyline
           points="1540.42,661.73 1540.42,656.75 "
           style="stroke:#333333;stroke-width:1.94;stroke-linecap:butt"
           id="polyline88" /><polyline
           points="1656.54,661.73 1656.54,656.75 "
           style="stroke:#333333;stroke-width:1.94;stroke-linecap:butt"
           id="polyline89" /><polyline
           points="1772.65,661.73 1772.65,656.75 "
           style="stroke:#333333;stroke-width:1.94;stroke-linecap:butt"
           id="polyline90" /><polyline
           points="1888.77,661.73 1888.77,656.75 "
           style="stroke:#333333;stroke-width:1.94;stroke-linecap:butt"
           id="polyline91" /><polyline
           points="2004.89,661.73 2004.89,656.75 "
           style="stroke:#333333;stroke-width:1.94;stroke-linecap:butt"
           id="polyline92" /><polyline
           points="2121.01,661.73 2121.01,656.75 "
           style="stroke:#333333;stroke-width:1.94;stroke-linecap:butt"
           id="polyline93" /><text
           x="1540.42"
           y="678.59998"
           text-anchor="middle"
           style="font-size:18px;font-family:Arial;fill:#4d4d4d"
           textLength="10.02"
           lengthAdjust="spacingAndGlyphs"
           id="text93">0</text><text
           x="1656.54"
           y="678.59998"
           text-anchor="middle"
           style="font-size:18px;font-family:Arial;fill:#4d4d4d"
           textLength="20.030001"
           lengthAdjust="spacingAndGlyphs"
           id="text94">10</text><text
           x="1772.65"
           y="678.59998"
           text-anchor="middle"
           style="font-size:18px;font-family:Arial;fill:#4d4d4d"
           textLength="20.030001"
           lengthAdjust="spacingAndGlyphs"
           id="text95">20</text><text
           x="1888.77"
           y="678.59998"
           text-anchor="middle"
           style="font-size:18px;font-family:Arial;fill:#4d4d4d"
           textLength="20.030001"
           lengthAdjust="spacingAndGlyphs"
           id="text96">30</text><text
           x="2004.89"
           y="678.59998"
           text-anchor="middle"
           style="font-size:18px;font-family:Arial;fill:#4d4d4d"
           textLength="20.030001"
           lengthAdjust="spacingAndGlyphs"
           id="text97">40</text><text
           x="2121.01"
           y="678.59998"
           text-anchor="middle"
           style="font-size:18px;font-family:Arial;fill:#4d4d4d"
           textLength="20.030001"
           lengthAdjust="spacingAndGlyphs"
           id="text98">50</text><text
           x="1830.71"
           y="704.76001"
           text-anchor="middle"
           style="font-size:24px;font-family:Arial"
           textLength="254.78"
           lengthAdjust="spacingAndGlyphs"
           id="text99">Number of eigenvectors</text><text
           transform="rotate(-90,900.245,-566.895)"
           text-anchor="middle"
           style="font-size:24px;font-family:Arial"
           textLength="284.10999"
           lengthAdjust="spacingAndGlyphs"
           id="text100">Fraction of significant tests</text><rect
           x="1890.76"
           y="35.759998"
           width="199.23"
           height="142.45"
           style="fill:#ffffff;stroke:none;stroke-width:1.94"
           id="rect100" /><text
           x="1900.72"
           y="65.559998"
           style="font-size:24px;font-family:Arial"
           textLength="158.73"
           lengthAdjust="spacingAndGlyphs"
           id="text101">method_matrix</text><rect
           x="1900.72"
           y="78.190002"
           width="17.280001"
           height="22.51"
           style="fill:#ffffff;stroke:none;stroke-width:1.94"
           id="rect101" /><line
           x1="1902.45"
           y1="89.449997"
           x2="1916.27"
           y2="89.449997"
           style="stroke:#4477aa;stroke-width:4.27;stroke-linecap:butt"
           id="line101" /><rect
           x="1900.72"
           y="100.71"
           width="17.280001"
           height="22.51"
           style="fill:#ffffff;stroke:none;stroke-width:1.94"
           id="rect102" /><line
           x1="1902.45"
           y1="111.96"
           x2="1916.27"
           y2="111.96"
           style="stroke:#66ccee;stroke-width:4.27;stroke-linecap:butt"
           id="line102" /><rect
           x="1900.72"
           y="123.22"
           width="17.280001"
           height="22.51"
           style="fill:#ffffff;stroke:none;stroke-width:1.94"
           id="rect103" /><line
           x1="1902.45"
           y1="134.47"
           x2="1916.27"
           y2="134.47"
           style="stroke:#228833;stroke-width:4.27;stroke-linecap:butt"
           id="line103" /><rect
           x="1900.72"
           y="145.73"
           width="17.280001"
           height="22.51"
           style="fill:#ffffff;stroke:none;stroke-width:1.94"
           id="rect104" /><line
           x1="1902.45"
           y1="156.99001"
           x2="1916.27"
           y2="156.99001"
           style="stroke:#ccbb44;stroke-width:4.27;stroke-linecap:butt"
           id="line104" /><text
           x="1927.96"
           y="98.040001"
           style="font-size:24px;font-family:Arial"
           textLength="110.73"
           lengthAdjust="spacingAndGlyphs"
           id="text104">OLS_VCV</text><text
           x="1927.96"
           y="120.55"
           style="font-size:24px;font-family:Arial"
           textLength="136.08"
           lengthAdjust="spacingAndGlyphs"
           id="text105">OLS_dcVCV</text><text
           x="1927.96"
           y="143.06"
           style="font-size:24px;font-family:Arial"
           textLength="126.75"
           lengthAdjust="spacingAndGlyphs"
           id="text106">PGLS_VCV</text><text
           x="1927.96"
           y="165.58"
           style="font-size:24px;font-family:Arial"
           textLength="152.09"
           lengthAdjust="spacingAndGlyphs"
           id="text107">PGLS_dcVCV</text></g></g><g
       id="g19"
       transform="translate(14.897714,0.40363179)"><path
         style="fill:#000000;fill-opacity:1;stroke:#000000;stroke-width:2;stroke-linecap:round;stroke-dasharray:none;stroke-opacity:1;paint-order:stroke fill markers"
         d="m -204.78806,44.210834 35.3616,44.563444"
         id="path28" /><path
         style="fill:#000000;fill-opacity:1;stroke:#000000;stroke-width:2;stroke-linecap:round;stroke-dasharray:none;stroke-opacity:1;paint-order:stroke fill markers"
         d="m -147.61931,62.031408 -21.2792,26.816505"
         id="path28-9" /><path
         style="fill:#000000;fill-opacity:1;stroke:#000000;stroke-width:2;stroke-linecap:round;stroke-dasharray:none;stroke-opacity:1;paint-order:stroke fill markers"
         d="M -156.04735,42.803359 -180.37438,73.46073"
         id="path28-9-4" /><path
         style="fill:#000000;fill-opacity:1;stroke:#000000;stroke-width:2;stroke-linecap:round;stroke-dasharray:none;stroke-opacity:1;paint-order:stroke fill markers"
         d="m -185.50682,48.111174 -7.91151,9.970204"
         id="path28-9-4-5" /></g><g
       id="g20"
       transform="translate(0.61021286,-0.96435521)"><path
         style="fill:#000000;fill-opacity:1;stroke:#000000;stroke-width:2;stroke-linecap:round;stroke-dasharray:none;stroke-opacity:1;paint-order:stroke fill markers"
         d="M 51.6013,41.1656 90.0301,89.5944"
         id="path28-3-8" /><path
         style="fill:#000000;fill-opacity:1;stroke:#000000;stroke-width:2;stroke-linecap:round;stroke-dasharray:none;stroke-opacity:1;paint-order:stroke fill markers"
         d="M 124.14407,47.248804 90.444697,89.71747"
         id="path28-9-1-0" /><path
         style="fill:#000000;fill-opacity:1;stroke:#000000;stroke-width:2;stroke-linecap:round;stroke-dasharray:none;stroke-opacity:1;paint-order:stroke fill markers"
         d="M 87.939515,53.6689 75.119325,69.825054"
         id="path28-9-4-5-1-19" /><path
         style="fill:#000000;fill-opacity:1;stroke:#000000;stroke-width:2;stroke-linecap:round;stroke-dasharray:none;stroke-opacity:1;paint-order:stroke fill markers"
         d="M 96.312046,47.178923 109.99457,64.401679"
         id="path28-9-4-5-1-1-1" /><path
         style="fill:#000000;fill-opacity:1;stroke:#000000;stroke-width:2;stroke-linecap:round;stroke-dasharray:none;stroke-opacity:1;paint-order:stroke fill markers"
         d="m 63.019495,40.799631 -5.491458,6.920453"
         id="path28-9-4-5-1-6-7" /><path
         style="fill:#000000;fill-opacity:1;stroke:#000000;stroke-width:2;stroke-linecap:round;stroke-dasharray:none;stroke-opacity:1;paint-order:stroke fill markers"
         d="M 109.84899,39.211824 100.10663,51.48936"
         id="path28-9-4-5-1-6-3-4" /><path
         style="fill:#000000;fill-opacity:1;stroke:#000000;stroke-width:2;stroke-linecap:round;stroke-dasharray:none;stroke-opacity:1;paint-order:stroke fill markers"
         d="m 69.882393,48.776711 10.3579,12.640006"
         id="path28-9-4-5-1-6-3-6-6" /><path
         style="fill:#000000;fill-opacity:1;stroke:#000000;stroke-width:2;stroke-linecap:round;stroke-dasharray:none;stroke-opacity:1;paint-order:stroke fill markers"
         d="m 115.5973,47.431916 3.95646,4.986487"
         id="path28-9-4-5-1-6-3-6-8-6" /></g><g
       id="g21"
       transform="translate(8.5477129,-0.96435521)"><path
         style="fill:#000000;fill-opacity:1;stroke:#000000;stroke-width:2;stroke-linecap:round;stroke-dasharray:none;stroke-opacity:1;paint-order:stroke fill markers"
         d="m 299.4281,41.7871 38.4288,48.4288"
         id="path28-3" /><path
         style="fill:#000000;fill-opacity:1;stroke:#000000;stroke-width:2;stroke-linecap:round;stroke-dasharray:none;stroke-opacity:1;paint-order:stroke fill markers"
         d="m 371.29865,48.18384 -33.0442,41.643012"
         id="path28-9-1" /><path
         style="fill:#000000;fill-opacity:1;stroke:#000000;stroke-width:2;stroke-linecap:round;stroke-dasharray:none;stroke-opacity:1;paint-order:stroke fill markers"
         d="m 340.50099,54.702929 -14.9818,18.8802"
         id="path28-9-4-5-1" /><path
         style="fill:#000000;fill-opacity:1;stroke:#000000;stroke-width:2;stroke-linecap:round;stroke-dasharray:none;stroke-opacity:1;paint-order:stroke fill markers"
         d="m 353.66447,39.747759 11.5997,14.601"
         id="path28-9-4-5-1-1" /><path
         style="fill:#000000;fill-opacity:1;stroke:#000000;stroke-width:2;stroke-linecap:round;stroke-dasharray:none;stroke-opacity:1;paint-order:stroke fill markers"
         d="m 345.81591,63.616055 6.0922,7.6782"
         id="path28-9-4-5-1-6-3-6-8" /><path
         style="fill:#000000;fill-opacity:1;stroke:#000000;stroke-width:2;stroke-linecap:round;stroke-dasharray:none;stroke-opacity:1;paint-order:stroke fill markers"
         d="m 324.24655,61.050953 5.0245,6.3326"
         id="path28-9-4-5-1-6-3-6-8-67" /></g><text
       xml:space="preserve"
       transform="matrix(0.26458333,0,0,0.26458333,-266.96637,28.945976)"
       id="text19-1-9"
       style="font-size:85.3333px;font-family:Arial;-inkscape-font-specification:Arial;text-align:start;writing-mode:lr-tb;direction:ltr;white-space:pre;shape-inside:url(#rect20-1-1);display:inline;fill:#000000"><tspan
         x="-21.138672"
         y="-24.133702"
         id="tspan4">A</tspan></text><text
       xml:space="preserve"
       transform="matrix(0.26458333,0,0,0.26458333,-8.9973366,29.050576)"
       id="text19-4-5-2"
       style="font-size:85.3333px;font-family:Arial;-inkscape-font-specification:Arial;text-align:start;writing-mode:lr-tb;direction:ltr;white-space:pre;shape-inside:url(#rect20-6-8-0);display:inline;fill:#000000"><tspan
         x="-21.138672"
         y="-24.133702"
         id="tspan5">B</tspan></text><text
       xml:space="preserve"
       transform="matrix(0.26458333,0,0,0.26458333,243.90517,28.945976)"
       id="text19-2-1-8"
       style="font-size:85.3333px;font-family:Arial;-inkscape-font-specification:Arial;text-align:start;writing-mode:lr-tb;direction:ltr;white-space:pre;shape-inside:url(#rect20-2-5-4);display:inline;fill:#000000"><tspan
         x="-21.138672"
         y="-24.133702"
         id="tspan6">C</tspan></text></g></svg>
